<svg xmlns="http://www.w3.org/2000/svg" xmlns:xlink="http://www.w3.org/1999/xlink" version="1.1" x="0px" y="0px" viewBox="0 0 100 125" enable-background="new 0 0 100 100" xml:space="preserve"><path d="M97.1,69.6L97.1,69.6L97.1,69.6C95.5,56.3,91,40.3,79.8,27.3C64.2,9.3,39.4,1.5,6.3,4.3L4.4,4.5L4,6.4  C3.7,8-3.3,46.6,19,73.5c13.5,16.3,34.8,24.6,63.3,24.6c0,0,0,0,0,0c4,0,8.3-0.2,12.6-0.5l2-0.2l0.3-2  C97.3,94.5,98.8,83.6,97.1,69.6z M91.7,67.9L67.4,92.1c-1.7-0.2-3.4-0.5-5.1-0.8l28.5-28.5C91.1,64.6,91.4,66.2,91.7,67.9z   M8.5,33.6l24-24c1.6,0.2,3.1,0.4,4.6,0.7l-28,28C8.9,36.7,8.7,35.2,8.5,33.6z M8.7,9.2c6.1-0.4,11.8-0.5,17.2-0.2L8,27  C7.7,18.9,8.3,12.3,8.7,9.2z M22.9,70.3c-6.6-7.9-10.4-17.1-12.5-26l32.8-32.8c13.6,3.3,24.6,9.7,32.7,19.1C82.8,38.6,87,48,89.4,57  L56.4,90.1C42.2,86.6,31,80,22.9,70.3z M92.4,92.6c-3.5,0.2-6.9,0.3-10.1,0.3c0,0,0,0,0,0c-2.8,0-5.6-0.1-8.2-0.3l18.4-18.4  C93.1,82.7,92.7,89.4,92.4,92.6z"/><path d="M58.1,65.9l6.6-6.6c1-1,1-2.6,0-3.6c-1-1-2.6-1-3.6,0l-2.4,2.4l-0.3-7.7c0-1-0.7-1.9-1.6-2.3c-0.9-0.4-2-0.1-2.7,0.6  l-2.7,2.7l-0.9-9.1c-0.1-1-0.7-1.8-1.7-2.2c-0.9-0.3-2-0.1-2.7,0.6l-2.3,2.3l-0.2-7.5c0-1-0.7-1.9-1.6-2.3c-0.9-0.4-2-0.2-2.8,0.6  l-6.6,6.6c-1,1-1,2.6,0,3.6c1,1,2.6,1,3.6,0l2.3-2.3l0.2,7.5c0,1,0.7,1.9,1.6,2.3c0.9,0.4,2,0.2,2.8-0.6l2.7-2.7l0.9,9.1  c0.1,1,0.7,1.8,1.7,2.2c0.9,0.3,2,0.1,2.7-0.6l2.4-2.4l0.3,7.7c0,1,0.7,1.9,1.6,2.3c0.3,0.1,0.6,0.2,0.9,0.2  C57,66.6,57.6,66.4,58.1,65.9z"/></svg>